<svg xmlns="http://www.w3.org/2000/svg" viewBox="0 0 200 341" width="200" height="341" role="img" aria-label="Mystery Tarot card back (placeholder)">
  <defs>
    <radialGradient id="cbBg" cx="50%" cy="42%" r="70%">
      <stop offset="0%" stop-color="#241541"></stop>
      <stop offset="55%" stop-color="#120A22"></stop>
      <stop offset="100%" stop-color="#07030F"></stop>
    </radialGradient>
    <linearGradient id="cbGold" x1="0" y1="0" x2="1" y2="1">
      <stop offset="0%" stop-color="#F2DDA0"></stop>
      <stop offset="50%" stop-color="#E8C97A"></stop>
      <stop offset="100%" stop-color="#C49A45"></stop>
    </linearGradient>
  </defs>
  <rect x="1" y="1" width="198" height="339" rx="14" fill="url(#cbBg)"></rect>
  <rect x="8.5" y="8.5" width="183" height="324" rx="9" fill="none" stroke="url(#cbGold)" stroke-width="1.4" opacity="0.9"></rect>
  <rect x="13" y="13" width="174" height="315" rx="7" fill="none" stroke="#E8C97A" stroke-width="0.6" opacity="0.4"></rect>
  <g fill="none" stroke="url(#cbGold)" stroke-width="1.1" opacity="0.85">
    <circle cx="100" cy="170.5" r="46"></circle>
    <circle cx="100" cy="170.5" r="34"></circle>
    <path d="M100 124 L112 170.5 L100 217 L88 170.5 Z"></path>
    <path d="M54 170.5 L100 158.5 L146 170.5 L100 182.5 Z"></path>
  </g>
  <g fill="#E8C97A">
    <circle cx="100" cy="170.5" r="3.4"></circle>
    <text x="100" y="176" font-family="Georgia, serif" font-size="20" fill="#E8C97A" text-anchor="middle" opacity="0">✦</text>
  </g>
  
  <g fill="#E8C97A" font-family="Georgia, serif" font-size="15" text-anchor="middle" opacity="0.8">
    <text x="26" y="34">✦</text>
    <text x="174" y="34">✦</text>
    <text x="26" y="324">✦</text>
    <text x="174" y="324">✦</text>
  </g>
  
  <g fill="none" stroke="#9B7FD4" stroke-width="1" opacity="0.7">
    <path d="M100 60 a10 10 0 1 0 6 18 a8 8 0 1 1 -6 -18 z"></path>
    <path d="M100 263 a10 10 0 1 0 6 18 a8 8 0 1 1 -6 -18 z"></path>
  </g>
</svg>