<svg xmlns="http://www.w3.org/2000/svg" viewBox="0 0 800 600" width="800" height="600"><circle cx="392.3" cy="336.5" r="0.33" fill="#E6DCC8" opacity="0.32"></circle><circle cx="405.1" cy="47.1" r="1.17" fill="#E6DCC8" opacity="0.56"></circle><circle cx="227.6" cy="468.8" r="0.92" fill="#E6DCC8" opacity="0.20"></circle><circle cx="188.1" cy="403.2" r="0.37" fill="#E6DCC8" opacity="0.54"></circle><circle cx="141.0" cy="30.0" r="1.23" fill="#E6DCC8" opacity="0.83"></circle><circle cx="355.4" cy="573.4" r="0.41" fill="#E6DCC8" opacity="0.44"></circle><circle cx="537.5" cy="168.5" r="0.39" fill="#E6DCC8" opacity="0.84"></circle><circle cx="186.1" cy="328.2" r="0.56" fill="#E6DCC8" opacity="0.26"></circle><circle cx="281.4" cy="210.0" r="0.29" fill="#E6DCC8" opacity="0.80"></circle><circle cx="707.3" cy="282.4" r="0.46" fill="#E6DCC8" opacity="0.57"></circle><circle cx="607.1" cy="391.7" r="0.35" fill="#E6DCC8" opacity="0.31"></circle><circle cx="72.2" cy="28.6" r="0.65" fill="#E6DCC8" opacity="0.63"></circle><circle cx="764.1" cy="195.0" r="0.68" fill="#E6DCC8" opacity="0.50"></circle><circle cx="670.7" cy="270.4" r="0.68" fill="#E6DCC8" opacity="0.33"></circle><circle cx="594.4" cy="79.1" r="0.50" fill="#E8C97A" opacity="0.69"></circle><circle cx="774.7" cy="556.1" r="1.15" fill="#E6DCC8" opacity="0.67"></circle><circle cx="443.6" cy="14.5" r="0.56" fill="#E6DCC8" opacity="0.40"></circle><circle cx="314.8" cy="411.5" r="1.01" fill="#E8C97A" opacity="0.34"></circle><circle cx="5.6" cy="215.9" r="0.84" fill="#E6DCC8" opacity="0.46"></circle><circle cx="792.5" cy="273.8" r="1.16" fill="#E6DCC8" opacity="0.56"></circle><circle cx="100.1" cy="475.9" r="1.19" fill="#E6DCC8" opacity="0.34"></circle><circle cx="123.6" cy="424.2" r="0.97" fill="#E8C97A" opacity="0.61"></circle><circle cx="183.9" cy="498.3" r="0.39" fill="#E6DCC8" opacity="0.18"></circle><circle cx="16.8" cy="322.3" r="1.11" fill="#E6DCC8" opacity="0.74"></circle><circle cx="395.2" cy="31.2" r="0.51" fill="#E6DCC8" opacity="0.49"></circle><circle cx="284.5" cy="138.2" r="0.53" fill="#E6DCC8" opacity="0.70"></circle><circle cx="131.7" cy="0.5" r="0.89" fill="#E6DCC8" opacity="0.21"></circle><circle cx="87.2" cy="286.8" r="0.66" fill="#E6DCC8" opacity="0.16"></circle><circle cx="361.1" cy="443.3" r="0.57" fill="#E6DCC8" opacity="0.80"></circle><circle cx="511.3" cy="160.8" r="0.60" fill="#E8C97A" opacity="0.20"></circle><circle cx="66.3" cy="41.0" r="0.40" fill="#E6DCC8" opacity="0.36"></circle><circle cx="480.3" cy="263.7" r="0.61" fill="#E8C97A" opacity="0.53"></circle><circle cx="422.5" cy="252.9" r="0.33" fill="#E6DCC8" opacity="0.78"></circle><circle cx="399.1" cy="543.8" r="0.95" fill="#E8C97A" opacity="0.47"></circle><circle cx="708.8" cy="249.4" r="0.75" fill="#E6DCC8" opacity="0.64"></circle><circle cx="731.8" cy="327.0" r="1.29" fill="#E8C97A" opacity="0.59"></circle><circle cx="352.2" cy="45.3" r="1.27" fill="#E6DCC8" opacity="0.54"></circle><circle cx="313.1" cy="450.4" r="1.06" fill="#E6DCC8" opacity="0.50"></circle><circle cx="705.9" cy="433.1" r="0.26" fill="#E6DCC8" opacity="0.41"></circle><circle cx="792.4" cy="395.3" r="0.37" fill="#E6DCC8" opacity="0.62"></circle><circle cx="160.1" cy="316.6" r="0.55" fill="#E8C97A" opacity="0.17"></circle><circle cx="411.6" cy="21.1" r="0.63" fill="#E6DCC8" opacity="0.28"></circle><circle cx="186.3" cy="444.0" r="0.54" fill="#E6DCC8" opacity="0.79"></circle><circle cx="316.3" cy="498.1" r="0.40" fill="#E6DCC8" opacity="0.39"></circle><circle cx="715.3" cy="341.1" r="0.29" fill="#E6DCC8" opacity="0.26"></circle><circle cx="200.5" cy="241.2" r="0.76" fill="#E6DCC8" opacity="0.38"></circle><circle cx="48.5" cy="444.9" r="0.70" fill="#E8C97A" opacity="0.54"></circle><circle cx="83.9" cy="242.9" r="0.45" fill="#E6DCC8" opacity="0.42"></circle><circle cx="101.8" cy="437.1" r="1.14" fill="#E6DCC8" opacity="0.17"></circle><circle cx="223.2" cy="207.0" r="0.45" fill="#E6DCC8" opacity="0.66"></circle><circle cx="183.9" cy="376.8" r="1.18" fill="#E6DCC8" opacity="0.81"></circle><circle cx="756.8" cy="481.6" r="0.65" fill="#E6DCC8" opacity="0.21"></circle><circle cx="107.2" cy="434.4" r="0.85" fill="#E6DCC8" opacity="0.83"></circle><circle cx="282.1" cy="192.6" r="0.38" fill="#E6DCC8" opacity="0.79"></circle><circle cx="632.1" cy="424.7" r="0.50" fill="#E6DCC8" opacity="0.56"></circle><circle cx="567.1" cy="577.0" r="0.87" fill="#E6DCC8" opacity="0.38"></circle><circle cx="445.1" cy="340.3" r="0.34" fill="#E8C97A" opacity="0.42"></circle><circle cx="594.5" cy="316.4" r="0.78" fill="#E6DCC8" opacity="0.58"></circle><circle cx="69.7" cy="84.9" r="0.62" fill="#E6DCC8" opacity="0.80"></circle><circle cx="739.6" cy="269.9" r="1.15" fill="#E6DCC8" opacity="0.46"></circle><circle cx="710.6" cy="206.7" r="0.47" fill="#E6DCC8" opacity="0.32"></circle><circle cx="281.4" cy="208.1" r="1.28" fill="#E6DCC8" opacity="0.72"></circle><circle cx="432.3" cy="31.6" r="0.71" fill="#E6DCC8" opacity="0.26"></circle><circle cx="247.1" cy="145.6" r="0.77" fill="#E6DCC8" opacity="0.55"></circle><circle cx="469.1" cy="396.6" r="0.74" fill="#E6DCC8" opacity="0.22"></circle><circle cx="389.7" cy="275.1" r="0.20" fill="#E6DCC8" opacity="0.58"></circle><circle cx="70.6" cy="183.2" r="0.68" fill="#E8C97A" opacity="0.62"></circle><circle cx="699.4" cy="100.3" r="0.20" fill="#E8C97A" opacity="0.74"></circle><circle cx="678.7" cy="450.6" r="0.83" fill="#E6DCC8" opacity="0.79"></circle><circle cx="247.8" cy="369.3" r="0.27" fill="#E6DCC8" opacity="0.59"></circle><circle cx="239.0" cy="569.3" r="0.86" fill="#E6DCC8" opacity="0.25"></circle><circle cx="565.8" cy="8.1" r="0.47" fill="#E6DCC8" opacity="0.24"></circle><circle cx="45.4" cy="154.1" r="0.75" fill="#E6DCC8" opacity="0.52"></circle><circle cx="754.5" cy="53.6" r="0.59" fill="#E6DCC8" opacity="0.21"></circle><circle cx="117.7" cy="197.5" r="0.32" fill="#E6DCC8" opacity="0.38"></circle><circle cx="330.0" cy="187.4" r="1.10" fill="#E6DCC8" opacity="0.47"></circle><circle cx="712.6" cy="403.2" r="0.59" fill="#E6DCC8" opacity="0.67"></circle><circle cx="201.1" cy="468.8" r="0.48" fill="#E6DCC8" opacity="0.58"></circle><circle cx="368.4" cy="519.4" r="0.32" fill="#E6DCC8" opacity="0.50"></circle><circle cx="179.9" cy="468.0" r="0.96" fill="#E6DCC8" opacity="0.29"></circle><circle cx="82.6" cy="272.1" r="1.03" fill="#E6DCC8" opacity="0.20"></circle><circle cx="227.1" cy="0.0" r="0.70" fill="#E6DCC8" opacity="0.66"></circle><circle cx="23.2" cy="298.2" r="0.69" fill="#E6DCC8" opacity="0.53"></circle><circle cx="628.9" cy="257.3" r="0.97" fill="#E6DCC8" opacity="0.69"></circle><circle cx="772.8" cy="479.2" r="1.22" fill="#E6DCC8" opacity="0.31"></circle><circle cx="309.0" cy="543.6" r="0.96" fill="#E6DCC8" opacity="0.76"></circle><circle cx="306.8" cy="474.5" r="0.39" fill="#E6DCC8" opacity="0.71"></circle><circle cx="472.2" cy="207.0" r="0.89" fill="#E6DCC8" opacity="0.21"></circle><circle cx="304.1" cy="54.3" r="0.77" fill="#E6DCC8" opacity="0.32"></circle><circle cx="782.7" cy="373.6" r="0.47" fill="#E8C97A" opacity="0.32"></circle><circle cx="192.0" cy="433.5" r="0.90" fill="#E8C97A" opacity="0.43"></circle><circle cx="75.2" cy="80.2" r="0.21" fill="#E8C97A" opacity="0.67"></circle><circle cx="523.5" cy="4.6" r="0.22" fill="#E6DCC8" opacity="0.28"></circle><circle cx="798.9" cy="8.5" r="0.23" fill="#E6DCC8" opacity="0.31"></circle><circle cx="488.8" cy="71.5" r="0.48" fill="#E6DCC8" opacity="0.48"></circle><circle cx="395.8" cy="17.6" r="0.82" fill="#E6DCC8" opacity="0.64"></circle><circle cx="759.4" cy="182.2" r="1.17" fill="#E6DCC8" opacity="0.62"></circle><circle cx="11.7" cy="78.0" r="0.56" fill="#E6DCC8" opacity="0.50"></circle><circle cx="466.2" cy="462.6" r="1.26" fill="#E6DCC8" opacity="0.78"></circle><circle cx="140.3" cy="404.4" r="0.53" fill="#E6DCC8" opacity="0.71"></circle><circle cx="310.5" cy="149.8" r="0.54" fill="#E8C97A" opacity="0.80"></circle><circle cx="1.5" cy="189.5" r="0.55" fill="#E8C97A" opacity="0.73"></circle><circle cx="608.3" cy="125.3" r="0.58" fill="#E6DCC8" opacity="0.64"></circle><circle cx="651.9" cy="336.9" r="0.52" fill="#E6DCC8" opacity="0.72"></circle><circle cx="668.2" cy="448.3" r="0.96" fill="#E6DCC8" opacity="0.57"></circle><circle cx="629.9" cy="594.8" r="0.33" fill="#E6DCC8" opacity="0.48"></circle><circle cx="302.6" cy="89.2" r="0.60" fill="#E6DCC8" opacity="0.33"></circle><circle cx="133.1" cy="89.1" r="0.38" fill="#E6DCC8" opacity="0.34"></circle><circle cx="272.0" cy="62.9" r="0.96" fill="#E6DCC8" opacity="0.27"></circle><circle cx="129.2" cy="56.9" r="0.85" fill="#E6DCC8" opacity="0.38"></circle><circle cx="62.7" cy="361.8" r="1.12" fill="#E6DCC8" opacity="0.82"></circle><circle cx="401.0" cy="379.6" r="0.36" fill="#E6DCC8" opacity="0.79"></circle><circle cx="198.4" cy="289.8" r="0.27" fill="#E6DCC8" opacity="0.24"></circle><circle cx="523.9" cy="116.5" r="1.07" fill="#E8C97A" opacity="0.65"></circle><circle cx="283.8" cy="394.9" r="0.83" fill="#E8C97A" opacity="0.68"></circle><circle cx="576.8" cy="238.0" r="1.16" fill="#E6DCC8" opacity="0.66"></circle><circle cx="783.2" cy="3.1" r="0.31" fill="#E8C97A" opacity="0.60"></circle><circle cx="786.9" cy="158.8" r="0.26" fill="#E6DCC8" opacity="0.70"></circle><circle cx="531.2" cy="551.4" r="0.31" fill="#E6DCC8" opacity="0.30"></circle><circle cx="107.3" cy="71.6" r="1.13" fill="#E6DCC8" opacity="0.72"></circle><circle cx="377.1" cy="321.4" r="0.94" fill="#E6DCC8" opacity="0.22"></circle><circle cx="128.2" cy="80.2" r="1.10" fill="#E6DCC8" opacity="0.62"></circle><circle cx="162.9" cy="372.1" r="0.33" fill="#E6DCC8" opacity="0.37"></circle><circle cx="721.0" cy="332.5" r="0.77" fill="#E6DCC8" opacity="0.68"></circle><circle cx="234.4" cy="74.2" r="0.33" fill="#E6DCC8" opacity="0.28"></circle><circle cx="216.7" cy="354.6" r="0.20" fill="#E8C97A" opacity="0.31"></circle><circle cx="285.2" cy="242.3" r="0.92" fill="#E6DCC8" opacity="0.76"></circle><circle cx="116.5" cy="583.5" r="0.29" fill="#E6DCC8" opacity="0.73"></circle><circle cx="335.3" cy="69.0" r="0.84" fill="#E6DCC8" opacity="0.60"></circle><circle cx="736.5" cy="100.6" r="0.40" fill="#E6DCC8" opacity="0.51"></circle><circle cx="641.3" cy="458.1" r="1.08" fill="#E6DCC8" opacity="0.63"></circle><circle cx="585.3" cy="165.3" r="1.22" fill="#E8C97A" opacity="0.60"></circle><circle cx="541.5" cy="557.6" r="0.40" fill="#E6DCC8" opacity="0.68"></circle><circle cx="275.3" cy="347.9" r="0.57" fill="#E6DCC8" opacity="0.75"></circle><circle cx="233.5" cy="93.6" r="0.35" fill="#E6DCC8" opacity="0.36"></circle><circle cx="566.9" cy="463.2" r="1.01" fill="#E6DCC8" opacity="0.63"></circle><circle cx="685.2" cy="303.0" r="1.08" fill="#E6DCC8" opacity="0.44"></circle><circle cx="146.5" cy="503.8" r="0.52" fill="#E6DCC8" opacity="0.64"></circle><circle cx="79.3" cy="467.4" r="1.22" fill="#E8C97A" opacity="0.43"></circle><circle cx="337.7" cy="373.4" r="0.48" fill="#E6DCC8" opacity="0.46"></circle></svg>